<svg xmlns="http://www.w3.org/2000/svg" width="108.958" height="15.997" viewBox="0 0 108.958 15.997">
  <g id="Group_3327" data-name="Group 3327" transform="translate(-200 -3779)">
    <g id="Group_3206" data-name="Group 3206" transform="translate(-3721.466 3859.492)">
      <g id="Group_13" data-name="Group 13" transform="translate(3921.466 -80.492)">
        <path id="Path_10" data-name="Path 10" d="M32.424,24.7H26.558l-2.877,4.8H35.3Zm10.723-8.847a7.991,7.991,0,0,0-5.656-2.35H21.474a8.027,8.027,0,0,0-8.008,8A7.945,7.945,0,0,0,15.54,26.86l.013.017c.088.093.174.187.265.278s.185.177.278.265l.015.013A7.979,7.979,0,0,0,21.474,29.5h.806l.371-.618L25.159,24.7H21.474a3.2,3.2,0,0,1,0-6.4H37.491a3.2,3.2,0,0,1,0,6.4H33.824l2.507,4.182.371.618h.79a7.987,7.987,0,0,0,5.656-13.647M32.424,24.7H26.558l-2.877,4.8H35.3Z" transform="translate(-13.466 -13.508)" fill="#fff"/>
        <path id="Path_11" data-name="Path 11" d="M53.372,49.358H41.753l2.877-4.8H50.5Z" transform="translate(-31.538 -33.363)" fill="#55f7ff"/>
      </g>
      <g id="Group_12" data-name="Group 12" transform="translate(3958.696 -79.413)">
        <path id="Path_12" data-name="Path 12" d="M123.238,23.4a4.624,4.624,0,0,0-.917-.567,3.559,3.559,0,0,0-1.555-.349,3.375,3.375,0,0,0-2.83,1.3,5.7,5.7,0,0,0-.982,3.536,5.732,5.732,0,0,0,.906,3.472,3.138,3.138,0,0,0,2.658,1.232,4.144,4.144,0,0,0,2.39-.753v3.754h2.521V22.735h-1.961Zm-2.149,6.355a1.234,1.234,0,0,1-1.161-.6,3.719,3.719,0,0,1-.386-1.863,3.239,3.239,0,0,1,.485-1.887,1.414,1.414,0,0,1,1.219-.655,2.313,2.313,0,0,1,.895.2,2.909,2.909,0,0,1,.768.473v3.609a3.323,3.323,0,0,1-.821.507,2.467,2.467,0,0,1-1,.226" transform="translate(-116.955 -20.325)" fill="#fff"/>
        <path id="Path_13" data-name="Path 13" d="M152.612,29.06a3.466,3.466,0,0,1-2.084,1.134.989.989,0,0,1-.6-.146.947.947,0,0,1-.279-.558,6.776,6.776,0,0,1-.1-1.359V23.175H147.03v5.97a4.1,4.1,0,0,0,.623,2.425,2.559,2.559,0,0,0,2.214.892,3.878,3.878,0,0,0,1.648-.4,4.828,4.828,0,0,0,1.1-.7v.85h2.521V23.175h-2.521Z" transform="translate(-136.169 -20.763)" fill="#fff"/>
        <path id="Path_14" data-name="Path 14" d="M181.861,23.237a4.948,4.948,0,0,0-3.04-.748,6.026,6.026,0,0,0-2.33.407,2.986,2.986,0,0,0-1.463,1.207l-.1.162,1.993,1.279.1-.182a1.366,1.366,0,0,1,.651-.579,2.648,2.648,0,0,1,1.111-.213,2.31,2.31,0,0,1,1.178.239.888.888,0,0,1,.344.829v.211l-1.65.157a7.109,7.109,0,0,0-2.189.5,2.719,2.719,0,0,0-1.2,1.019,3.047,3.047,0,0,0-.405,1.631,2.861,2.861,0,0,0,.79,2.072,3.094,3.094,0,0,0,2.311.815,4.012,4.012,0,0,0,2.513-.929v.673h2.347V25.706a2.967,2.967,0,0,0-.97-2.469m-1.55,4.549v1.345a4.359,4.359,0,0,1-.977.6,2.278,2.278,0,0,1-.867.228,1.38,1.38,0,0,1-.767-.187.732.732,0,0,1-.243-.65.948.948,0,0,1,.421-.853,3.517,3.517,0,0,1,1.565-.406Z" transform="translate(-153.955 -20.325)" fill="#fff"/>
        <path id="Path_15" data-name="Path 15" d="M208.8,22.488a3.846,3.846,0,0,0-1.583.364,4.9,4.9,0,0,0-1.17.755v-.871h-2.521v9.052h2.521V25.9a3.485,3.485,0,0,1,2.092-1.145.764.764,0,0,1,.749.351,4.06,4.06,0,0,1,.221,1.716v4.968h2.521V25.813a3.757,3.757,0,0,0-.7-2.534,2.726,2.726,0,0,0-2.127-.791" transform="translate(-172.264 -20.325)" fill="#fff"/>
        <path id="Path_16" data-name="Path 16" d="M235.749,25.843a2.837,2.837,0,0,1-1.09.225.705.705,0,0,1-.567-.222,1.517,1.517,0,0,1-.2-.97V20.991H235.9V18.908h-2.015V16.5h-2.521v2.411h-1.1v2.083h1.1v4.156a3.256,3.256,0,0,0,.716,2.333,3.119,3.119,0,0,0,2.3.736,6.529,6.529,0,0,0,1.864-.264l.173-.052-.458-2.148Z" transform="translate(-189.349 -16.497)" fill="#fff"/>
        <path id="Path_17" data-name="Path 17" d="M256.452,29.06a3.467,3.467,0,0,1-2.084,1.134.99.99,0,0,1-.6-.146.947.947,0,0,1-.279-.558,6.782,6.782,0,0,1-.1-1.359V23.175H250.87v5.97a4.1,4.1,0,0,0,.623,2.425,2.56,2.56,0,0,0,2.214.892,3.878,3.878,0,0,0,1.648-.4,4.843,4.843,0,0,0,1.1-.7v.85h2.521V23.175h-2.521Z" transform="translate(-202.511 -20.763)" fill="#fff"/>
        <path id="Path_18" data-name="Path 18" d="M292.24,23.279a2.417,2.417,0,0,0-1.994-.791,3.253,3.253,0,0,0-1.61.388,6.328,6.328,0,0,0-1.208.919,1.973,1.973,0,0,0-.681-.9,2.905,2.905,0,0,0-1.712-.408,3.129,3.129,0,0,0-1.54.388,4.97,4.97,0,0,0-.957.706v-.846h-2.521v9.052h2.521v-5.9a4.9,4.9,0,0,1,1.034-.863,1.714,1.714,0,0,1,.819-.275.576.576,0,0,1,.717.557,6.909,6.909,0,0,1,.07,1.18v5.3H287.7v-5.9a5.1,5.1,0,0,1,.929-.8,1.7,1.7,0,0,1,.924-.331.783.783,0,0,1,.491.108.823.823,0,0,1,.209.472,5.925,5.925,0,0,1,.087,1.157v5.3h2.521V25.813a4.032,4.032,0,0,0-.621-2.534" transform="translate(-221.134 -20.325)" fill="#fff"/>
      </g>
    </g>
  </g>
</svg>
