<svg id="Group_13" data-name="Group 13" xmlns="http://www.w3.org/2000/svg" width="39.944" height="20" viewBox="0 0 39.944 20">
  <path id="Path_10" data-name="Path 10" d="M37.106,27.507H29.791l-3.588,6H40.692ZM50.477,16.446a9.952,9.952,0,0,0-7.053-2.938H23.451a9.987,9.987,0,0,0-7.4,16.693l.016.021c.109.117.217.234.331.348s.231.222.347.331l.019.017a9.935,9.935,0,0,0,6.686,2.59h1l.462-.773,3.128-5.229h-4.6a4,4,0,0,1,0-8H43.425a4,4,0,0,1,0,8H38.851l3.126,5.229.462.773h.986a9.991,9.991,0,0,0,7.053-17.062M37.106,27.507H29.791l-3.588,6H40.692Z" transform="translate(-13.466 -13.508)" fill="#fff"/>
  <path id="Path_11" data-name="Path 11" d="M56.241,50.544H41.753l3.588-5.99h7.315Z" transform="translate(-29.015 -30.547)" fill="#55f7ff"/>
</svg>
