<svg xmlns="http://www.w3.org/2000/svg" width="163.468" height="24" viewBox="0 0 163.468 24">
  <g id="Group_3107" data-name="Group 3107" transform="translate(-3921.466 80.492)">
    <g id="Group_13" data-name="Group 13" transform="translate(3921.466 -80.492)">
      <path id="Path_10" data-name="Path 10" d="M41.908,30.306h-8.8l-4.316,7.2H46.222ZM58,17.033a11.989,11.989,0,0,0-8.485-3.525H25.48a12.043,12.043,0,0,0-12.014,12,11.919,11.919,0,0,0,3.111,8.032l.02.025c.132.14.261.281.4.418s.277.266.418.4l.023.02a11.971,11.971,0,0,0,8.045,3.108h1.209l.556-.927,3.764-6.274H25.48a4.8,4.8,0,0,1,0-9.6H49.511a4.8,4.8,0,0,1,0,9.6h-5.5l3.76,6.274.556.927h1.186A11.983,11.983,0,0,0,58,17.033M41.908,30.306h-8.8l-4.316,7.2H46.222Z" transform="translate(-13.466 -13.508)" fill="#fff"/>
      <path id="Path_11" data-name="Path 11" d="M59.184,51.761H41.753l4.316-7.207h8.8Z" transform="translate(-26.428 -27.765)" fill="#55f7ff"/>
    </g>
    <g id="Group_12" data-name="Group 12" transform="translate(3977.322 -78.873)">
      <path id="Path_12" data-name="Path 12" d="M126.381,23.863a6.937,6.937,0,0,0-1.375-.851,5.34,5.34,0,0,0-2.332-.524,5.063,5.063,0,0,0-4.246,1.951,8.552,8.552,0,0,0-1.473,5.3,8.6,8.6,0,0,0,1.359,5.209A4.708,4.708,0,0,0,122.3,36.8a6.217,6.217,0,0,0,3.585-1.129V41.3h3.782V22.859h-2.942ZM123.157,33.4a1.852,1.852,0,0,1-1.742-.907,5.579,5.579,0,0,1-.579-2.8,4.86,4.86,0,0,1,.727-2.831,2.121,2.121,0,0,1,1.829-.983,3.47,3.47,0,0,1,1.343.293,4.364,4.364,0,0,1,1.152.709V32.3a4.985,4.985,0,0,1-1.232.761,3.7,3.7,0,0,1-1.5.34" transform="translate(-116.955 -19.242)" fill="#fff"/>
      <path id="Path_13" data-name="Path 13" d="M155.4,32a5.2,5.2,0,0,1-3.127,1.7,1.484,1.484,0,0,1-.894-.218,1.421,1.421,0,0,1-.418-.838,10.166,10.166,0,0,1-.154-2.038V23.175H147.03v8.957a6.156,6.156,0,0,0,.935,3.638,3.839,3.839,0,0,0,3.322,1.339,5.818,5.818,0,0,0,2.473-.6A7.243,7.243,0,0,0,155.4,35.45v1.275h3.782V23.175H155.4Z" transform="translate(-130.736 -19.557)" fill="#fff"/>
      <path id="Path_14" data-name="Path 14" d="M185.359,23.611a7.423,7.423,0,0,0-4.56-1.122,9.04,9.04,0,0,0-3.5.611,4.48,4.48,0,0,0-2.195,1.811l-.145.243,2.99,1.92.152-.273a2.05,2.05,0,0,1,.976-.868,3.973,3.973,0,0,1,1.667-.32,3.466,3.466,0,0,1,1.767.359,1.333,1.333,0,0,1,.517,1.243v.316l-2.475.236a10.665,10.665,0,0,0-3.284.75,4.08,4.08,0,0,0-1.8,1.529,4.572,4.572,0,0,0-.608,2.447,4.292,4.292,0,0,0,1.185,3.109,4.642,4.642,0,0,0,3.468,1.222,6.02,6.02,0,0,0,3.771-1.394v1.01h3.522V27.316a4.451,4.451,0,0,0-1.456-3.7m-2.326,6.825v2.018a6.54,6.54,0,0,1-1.466.9,3.417,3.417,0,0,1-1.3.341,2.07,2.07,0,0,1-1.151-.28,1.1,1.1,0,0,1-.365-.976,1.423,1.423,0,0,1,.632-1.28,5.276,5.276,0,0,1,2.348-.609Z" transform="translate(-143.492 -19.243)" fill="#fff"/>
      <path id="Path_15" data-name="Path 15" d="M211.438,22.488a5.77,5.77,0,0,0-2.375.546,7.352,7.352,0,0,0-1.755,1.133V22.86h-3.782V36.44h3.782V27.6a5.229,5.229,0,0,1,3.139-1.718,1.147,1.147,0,0,1,1.123.527,6.091,6.091,0,0,1,.331,2.575V36.44h3.782V27.476a5.637,5.637,0,0,0-1.054-3.8,4.089,4.089,0,0,0-3.191-1.187" transform="translate(-156.624 -19.242)" fill="#fff"/>
      <path id="Path_16" data-name="Path 16" d="M238.49,30.518a4.256,4.256,0,0,1-1.635.337,1.058,1.058,0,0,1-.851-.333,2.276,2.276,0,0,1-.306-1.455V23.239h3.023V20.114H235.7V16.5h-3.782v3.617h-1.648v3.125h1.648v6.236a4.886,4.886,0,0,0,1.075,3.5,4.679,4.679,0,0,0,3.455,1.1,9.8,9.8,0,0,0,2.8-.4l.259-.077-.687-3.223Z" transform="translate(-168.878 -16.497)" fill="#fff"/>
      <path id="Path_17" data-name="Path 17" d="M259.245,32a5.2,5.2,0,0,1-3.127,1.7,1.485,1.485,0,0,1-.894-.218,1.421,1.421,0,0,1-.418-.838,10.177,10.177,0,0,1-.154-2.038V23.175H250.87v8.957a6.156,6.156,0,0,0,.935,3.638,3.841,3.841,0,0,0,3.322,1.339,5.818,5.818,0,0,0,2.473-.6,7.265,7.265,0,0,0,1.645-1.056v1.275h3.782V23.175h-3.782Z" transform="translate(-178.318 -19.557)" fill="#fff"/>
      <path id="Path_18" data-name="Path 18" d="M298.354,23.675a3.626,3.626,0,0,0-2.991-1.187,4.881,4.881,0,0,0-2.416.582,9.495,9.495,0,0,0-1.812,1.379,2.961,2.961,0,0,0-1.021-1.348,4.359,4.359,0,0,0-2.568-.613,4.694,4.694,0,0,0-2.311.582,7.455,7.455,0,0,0-1.435,1.059V22.86h-3.782V36.441H283.8V27.593a7.345,7.345,0,0,1,1.551-1.294,2.572,2.572,0,0,1,1.228-.413.865.865,0,0,1,1.076.836,10.366,10.366,0,0,1,.106,1.771v7.949h3.782V27.588a7.649,7.649,0,0,1,1.393-1.207,2.549,2.549,0,0,1,1.386-.5,1.174,1.174,0,0,1,.737.163,1.236,1.236,0,0,1,.314.708,8.892,8.892,0,0,1,.131,1.736v7.949h3.782V27.476a6.049,6.049,0,0,0-.932-3.8" transform="translate(-191.674 -19.242)" fill="#fff"/>
    </g>
  </g>
</svg>
