<svg xmlns="http://www.w3.org/2000/svg" xmlns:xlink="http://www.w3.org/1999/xlink" width="24" height="24" viewBox="0 0 24 24">
  <defs>
    <clipPath id="clip-path">
      <rect id="Rectangle_987" data-name="Rectangle 987" width="24" height="24" transform="translate(-0.21)" fill="none"/>
    </clipPath>
  </defs>
  <g id="discord_logo" transform="translate(0.21)" clip-path="url(#clip-path)">
    <path id="discordlogo" d="M18.514,1.794A18.035,18.035,0,0,0,14.062.413a.068.068,0,0,0-.072.034,12.562,12.562,0,0,0-.554,1.139,16.65,16.65,0,0,0-5,0A11.522,11.522,0,0,0,7.874.447.07.07,0,0,0,7.8.413,17.985,17.985,0,0,0,3.351,1.794a.064.064,0,0,0-.029.025A18.458,18.458,0,0,0,.09,14.267a.075.075,0,0,0,.028.051A18.136,18.136,0,0,0,5.58,17.079a.071.071,0,0,0,.077-.025,12.962,12.962,0,0,0,1.117-1.817.069.069,0,0,0-.038-.1,11.944,11.944,0,0,1-1.706-.813.07.07,0,0,1-.007-.116c.115-.086.229-.175.339-.266a.068.068,0,0,1,.071-.01,12.934,12.934,0,0,0,10.991,0,.067.067,0,0,1,.072.009c.11.09.224.181.34.266a.07.07,0,0,1-.006.116,11.208,11.208,0,0,1-1.707.812.07.07,0,0,0-.037.1A14.554,14.554,0,0,0,16.2,17.053a.069.069,0,0,0,.077.026,18.076,18.076,0,0,0,5.47-2.761.07.07,0,0,0,.028-.05A18.337,18.337,0,0,0,18.542,1.82.056.056,0,0,0,18.514,1.794ZM7.308,11.782a2.1,2.1,0,0,1-1.965-2.2,2.091,2.091,0,0,1,1.965-2.2,2.079,2.079,0,0,1,1.965,2.2A2.091,2.091,0,0,1,7.308,11.782Zm7.267,0a2.1,2.1,0,0,1-1.965-2.2,2.091,2.091,0,0,1,1.965-2.2,2.079,2.079,0,0,1,1.965,2.2A2.085,2.085,0,0,1,14.575,11.782Z" transform="translate(0.584 3.233)" fill="#fff"/>
  </g>
</svg>
