<svg xmlns="http://www.w3.org/2000/svg" xmlns:xlink="http://www.w3.org/1999/xlink" width="24" height="24" viewBox="0 0 24 24">
  <defs>
    <clipPath id="clip-path">
      <rect id="Rectangle_986" data-name="Rectangle 986" width="24" height="24" transform="translate(0.098)" fill="none"/>
    </clipPath>
  </defs>
  <g id="opensea_logo" transform="translate(-0.098)" clip-path="url(#clip-path)">
    <g id="Group_38" data-name="Group 38" transform="translate(1.217 2.43)">
      <path id="Path_229" data-name="Path 229" d="M24.62,37.726l.072-.114,4.317-6.758a.148.148,0,0,1,.259.019c.721,1.618,1.344,3.629,1.053,4.885a7.629,7.629,0,0,1-.846,1.859c-.05.094-.1.186-.162.275a.147.147,0,0,1-.123.065H24.747a.148.148,0,0,1-.127-.232Z" transform="translate(-23.403 -27.154)" fill="#fff"/>
      <path id="Path_230" data-name="Path 230" d="M41.651,31.879v1.079a.155.155,0,0,1-.093.141,5.365,5.365,0,0,0-1.973,1.34c-1.225,1.705-2.161,4.144-4.254,4.144H26.6A5.615,5.615,0,0,1,21,32.965v-.1a.15.15,0,0,1,.15-.15h4.867a.166.166,0,0,1,.158.185,1.662,1.662,0,0,0,.174.934,1.712,1.712,0,0,0,1.536.953h2.406v-1.88h-2.38a.154.154,0,0,1-.124-.241c.026-.04.055-.081.086-.127a16.172,16.172,0,0,0,.867-1.383,10.834,10.834,0,0,0,.6-1.2c.034-.074.062-.15.089-.229.047-.131.1-.253.129-.375.034-.1.062-.212.089-.313a4.847,4.847,0,0,0,.115-1.1c0-.15-.007-.306-.021-.458s-.027-.327-.048-.49c-.014-.144-.04-.288-.068-.437-.034-.219-.083-.435-.138-.654l-.019-.083c-.041-.15-.076-.292-.124-.442-.136-.47-.292-.927-.458-1.356-.061-.171-.129-.333-.2-.5-.1-.246-.205-.47-.3-.682-.048-.1-.089-.184-.131-.274s-.1-.2-.143-.3c-.034-.074-.074-.143-.1-.212l-.295-.544a.1.1,0,0,1,.109-.14l1.842.5h.007l.243.068.267.076.1.028V20.948A.951.951,0,0,1,31.239,20a.934.934,0,0,1,.669.281.963.963,0,0,1,.277.676v1.625l.2.055a.157.157,0,0,1,.045.023l.205.155c.069.055.143.123.229.191.178.143.388.327.621.539.062.054.123.109.178.164.3.278.635.606.955.967.089.1.178.205.267.313s.184.219.267.327c.109.144.229.295.327.45.048.074.1.15.15.229.131.2.246.4.356.607.047.1.1.2.136.3a4.377,4.377,0,0,1,.281.831,1.039,1.039,0,0,1,.04.184v.014a1.576,1.576,0,0,1,.034.26,2.78,2.78,0,0,1-.048.858,3.13,3.13,0,0,1-.1.36c-.041.115-.083.239-.136.354a4.813,4.813,0,0,1-.37.7c-.047.083-.1.171-.157.253s-.123.171-.178.251c-.076.1-.157.212-.239.308a3.27,3.27,0,0,1-.229.292c-.115.136-.229.265-.344.388-.069.081-.143.164-.219.237s-.15.157-.219.229c-.115.115-.212.205-.292.278l-.189.174a.155.155,0,0,1-.1.038H32.185v1.868H34.03a1.726,1.726,0,0,0,1.122-.415A13.46,13.46,0,0,0,36.3,33.246a.143.143,0,0,1,.071-.044l5.1-1.473a.15.15,0,0,1,.186.149Z" transform="translate(-21 -20)" fill="#fff"/>
    </g>
  </g>
</svg>
