<svg xmlns="http://www.w3.org/2000/svg" xmlns:xlink="http://www.w3.org/1999/xlink" width="24" height="24" viewBox="0 0 24 24">
  <defs>
    <clipPath id="clip-path">
      <rect id="Rectangle_985" data-name="Rectangle 985" width="24" height="24" fill="none"/>
    </clipPath>
  </defs>
  <g id="twitter_logo" clip-path="url(#clip-path)">
    <path id="iconmonstr-twitter-1_1_" data-name="iconmonstr-twitter-1 (1)" d="M20.661,4.236a8.463,8.463,0,0,1-2.435.667A4.246,4.246,0,0,0,20.09,2.558,8.491,8.491,0,0,1,17.4,3.587a4.242,4.242,0,0,0-7.224,3.865A12.033,12.033,0,0,1,1.439,3.024,4.244,4.244,0,0,0,2.75,8.683a4.221,4.221,0,0,1-1.919-.53,4.242,4.242,0,0,0,3.4,4.21,4.249,4.249,0,0,1-1.915.072,4.242,4.242,0,0,0,3.96,2.943A8.523,8.523,0,0,1,0,17.134a12,12,0,0,0,6.5,1.9A11.988,11.988,0,0,0,18.546,6.43a8.63,8.63,0,0,0,2.115-2.194Z" transform="translate(1.243 1.397)" fill="#fff"/>
  </g>
</svg>
