<svg xmlns="http://www.w3.org/2000/svg" width="80" height="80" viewBox="0 0 80 80">
  <g id="Group_3332" data-name="Group 3332" transform="translate(-320 -1165)">
    <rect id="Rectangle_33" data-name="Rectangle 33" width="80" height="80" transform="translate(320 1165)" fill="#55f7ff"/>
    <g id="Group_3226" data-name="Group 3226" transform="translate(223 -25)">
      <rect id="Rectangle_990" data-name="Rectangle 990" width="48" height="48" transform="translate(113 1206)" fill="none"/>
      <g id="launch" transform="translate(116 1209)">
        <path id="Icon_color" data-name="Icon color" d="M2.8,42a1.172,1.172,0,0,1-.827-.344L.344,40.024a1.168,1.168,0,0,1,0-1.657l7.6-7.6a1.164,1.164,0,0,1,1.657,0L11.233,32.4a1.166,1.166,0,0,1,0,1.655l-7.6,7.6A1.172,1.172,0,0,1,2.8,42Zm14.459-.068a1.17,1.17,0,0,1-.948-.486l-.676-.955a7,7,0,0,1,1.726-9.748l2.075-1.468-6.785-6.785-1.468,2.075a7,7,0,0,1-5.736,2.99,6.957,6.957,0,0,1-4.01-1.264l-.958-.676A1.173,1.173,0,0,1,.2,24.006l6.575-9.328a7,7,0,0,1,8.068-2.541l5.036-6.483a9.064,9.064,0,0,1,5.5-3.286L38.21.034a2.331,2.331,0,0,1,2.075.676l1,1a2.332,2.332,0,0,1,.676,2.075L39.632,16.614A9.054,9.054,0,0,1,36.2,22.046l-6.411,5.036a7.021,7.021,0,0,1-2.541,8.068l-9.328,6.575A1.158,1.158,0,0,1,17.263,41.932ZM29.135,9.362a3.514,3.514,0,1,0,2.477,1.025A3.478,3.478,0,0,0,29.135,9.362Z" fill="#010403"/>
      </g>
    </g>
  </g>
</svg>
