<svg id="Group_3223" data-name="Group 3223" xmlns="http://www.w3.org/2000/svg" xmlns:xlink="http://www.w3.org/1999/xlink" width="103.755" height="21.997" viewBox="0 0 103.755 21.997">
  <defs>
    <clipPath id="clip-path">
      <rect id="Rectangle_989" data-name="Rectangle 989" width="103.755" height="21.997" fill="#fff"/>
    </clipPath>
  </defs>
  <path id="Path_7263" data-name="Path 7263" d="M12.293,26.731v5.523l6.78-9.523Z" transform="translate(-5.513 -10.257)" fill="#fff"/>
  <path id="Path_7264" data-name="Path 7264" d="M12.293,14.813V21.9l6.78-4.01Z" transform="translate(-5.513 -6.677)" fill="#fff"/>
  <path id="Path_7265" data-name="Path 7265" d="M12.293,0V8.169l6.78,3.079Z" transform="translate(-5.513 0)" fill="#fff"/>
  <path id="Path_7266" data-name="Path 7266" d="M6.78,32.254V26.731l-6.78-4Z" transform="translate(0 -10.257)" fill="#fff"/>
  <path id="Path_7267" data-name="Path 7267" d="M0,17.891,6.78,21.9v-7.09Z" transform="translate(0 -6.677)" fill="#fff"/>
  <path id="Path_7268" data-name="Path 7268" d="M6.78,0,0,11.248,6.78,8.169Z" transform="translate(0 0)" fill="#fff"/>
  <g id="Group_3222" data-name="Group 3222">
    <g id="Group_3221" data-name="Group 3221" clip-path="url(#clip-path)">
      <path id="Path_7269" data-name="Path 7269" d="M35.253,22.744a3.339,3.339,0,0,0,3.186,3.165,3.109,3.109,0,0,0,2.7-1.406.365.365,0,0,1,.467-.076h0a.333.333,0,0,1,.108.472,3.748,3.748,0,0,1-3.328,1.674,3.836,3.836,0,0,1-2.845-1.383,4.132,4.132,0,0,1-.957-2.774,3.9,3.9,0,0,1,1.065-2.852,3.7,3.7,0,0,1,2.737-1.252,3.518,3.518,0,0,1,2.71,1.169A4.183,4.183,0,0,1,42.241,22.4a.336.336,0,0,1-.094.244.333.333,0,0,1-.24.1Zm3.135-3.786a3.085,3.085,0,0,0-2.074.88,3.722,3.722,0,0,0-1.031,2.277h6.2a3.626,3.626,0,0,0-.963-2.195,2.556,2.556,0,0,0-2.136-.963" transform="translate(-15.565 -9.241)" fill="#fff"/>
      <path id="Path_7270" data-name="Path 7270" d="M91.094,22.744a3.339,3.339,0,0,0,3.186,3.165,3.109,3.109,0,0,0,2.7-1.406.365.365,0,0,1,.467-.076h0a.333.333,0,0,1,.108.472,3.748,3.748,0,0,1-3.328,1.674,3.836,3.836,0,0,1-2.845-1.383,4.132,4.132,0,0,1-.957-2.774,3.9,3.9,0,0,1,1.065-2.852,3.7,3.7,0,0,1,2.737-1.252,3.518,3.518,0,0,1,2.71,1.169A4.183,4.183,0,0,1,98.082,22.4a.336.336,0,0,1-.094.244.333.333,0,0,1-.24.1Zm3.135-3.786a3.085,3.085,0,0,0-2.074.88,3.722,3.722,0,0,0-1.031,2.277h6.2a3.626,3.626,0,0,0-.963-2.195,2.556,2.556,0,0,0-2.136-.963" transform="translate(-40.696 -9.241)" fill="#fff"/>
      <path id="Path_7271" data-name="Path 7271" d="M125.652,22.744a3.339,3.339,0,0,0,3.186,3.165,3.109,3.109,0,0,0,2.7-1.406.365.365,0,0,1,.467-.076h0a.333.333,0,0,1,.108.472,3.748,3.748,0,0,1-3.328,1.674,3.836,3.836,0,0,1-2.845-1.383,4.132,4.132,0,0,1-.957-2.774,3.9,3.9,0,0,1,1.065-2.852,3.7,3.7,0,0,1,2.737-1.252,3.516,3.516,0,0,1,2.709,1.169A4.18,4.18,0,0,1,132.64,22.4a.334.334,0,0,1-.335.346Zm3.135-3.786a3.085,3.085,0,0,0-2.074.88,3.719,3.719,0,0,0-1.031,2.277h6.2a3.627,3.627,0,0,0-.964-2.195,2.554,2.554,0,0,0-2.135-.963" transform="translate(-56.249 -9.241)" fill="#fff"/>
      <path id="Path_7272" data-name="Path 7272" d="M57.617,16.854V23.91a.311.311,0,0,1-.31.31h0a.311.311,0,0,1-.31-.31V16.854H55.224a.3.3,0,1,1,0-.6H57V13.64a.314.314,0,0,1,.313-.313h.007a.3.3,0,0,1,.3.3v2.626h1.829a.3.3,0,0,1,0,.6Z" transform="translate(-24.718 -6.998)" fill="#fff"/>
      <path id="Path_7273" data-name="Path 7273" d="M74.861,13.116a3.045,3.045,0,0,0-3.2,1.568V6.854a.3.3,0,0,0-.3-.3h-.007a.314.314,0,0,0-.313.313V20.862a.311.311,0,0,0,.31.31h0a.311.311,0,0,0,.31-.31v-4.73a2.8,2.8,0,0,1,3.2-2.411,2.677,2.677,0,0,1,1.958,2.75v4.391a.311.311,0,0,0,.31.31h0a.311.311,0,0,0,.31-.31V16.485a3.219,3.219,0,0,0-2.577-3.368" transform="translate(-31.97 -3.95)" fill="#fff"/>
      <path id="Path_7274" data-name="Path 7274" d="M149.193,26.786a3.044,3.044,0,0,0,3.2-1.568v1.126a.3.3,0,0,0,.3.3h.007a.314.314,0,0,0,.313-.313V19.04a.311.311,0,0,0-.31-.31h0a.311.311,0,0,0-.31.31l.037,3.863c0,2.005-1.564,3.61-3.2,3.262a2.672,2.672,0,0,1-2-2.734V19.04a.31.31,0,1,0-.62,0v4.377a3.1,3.1,0,0,0,2.577,3.368" transform="translate(-65.984 -9.429)" fill="#fff"/>
      <path id="Path_7275" data-name="Path 7275" d="M176.09,18.455a3.082,3.082,0,0,0-3.371,2.066,3.1,3.1,0,0,0-2.415-2.066,3.033,3.033,0,0,0-3.215,1.534V18.862a.3.3,0,0,0-.3-.3h-.007a.315.315,0,0,0-.313.313v7.29a.31.31,0,0,0,.62,0l-.037-3.863c0-2.005,1.575-3.576,3.213-3.228a2.65,2.65,0,0,1,1.991,2.559v4.531a.219.219,0,0,0,0,.032v0a.357.357,0,0,0,.359.31h0a.311.311,0,0,0,.31-.31V25.143c0-.694.006-1.61.006-2.315,0-2.166.976-4.084,3.115-3.753a2.617,2.617,0,0,1,2,2.734V26.2a.311.311,0,0,0,.31.31h0a.311.311,0,0,0,.31-.31V21.823a3.22,3.22,0,0,0-2.577-3.368" transform="translate(-74.918 -9.288)" fill="#fff"/>
      <path id="Path_7276" data-name="Path 7276" d="M116.024,18.989a.311.311,0,0,0-.115-.241.38.38,0,0,0-.26-.063,3.412,3.412,0,0,0-2.793,1.87V18.937a.3.3,0,0,0-.3-.3h-.007a.314.314,0,0,0-.313.313v7.29a.31.31,0,0,0,.31.31h0a.311.311,0,0,0,.31-.31l.02-3.65a3.264,3.264,0,0,1,2.909-3.309.28.28,0,0,0,.24-.291Z" transform="translate(-50.511 -9.387)" fill="#fff"/>
    </g>
  </g>
</svg>
