<svg id="Group_3220" data-name="Group 3220" xmlns="http://www.w3.org/2000/svg" xmlns:xlink="http://www.w3.org/1999/xlink" width="110.346" height="15" viewBox="0 0 110.346 15">
  <defs>
    <clipPath id="clip-path">
      <path id="Path_7254" data-name="Path 7254" d="M3.519,21.725a.616.616,0,0,0-.437.181L.091,24.893A.3.3,0,0,0,0,25.105v.009a.309.309,0,0,0,.31.307H15.44a.617.617,0,0,0,.437-.181l2.99-2.987a.309.309,0,0,0-.218-.528Z" transform="translate(0 -21.725)" fill="#fff"/>
    </clipPath>
    <clipPath id="clip-path-2">
      <path id="Path_7255" data-name="Path 7255" d="M3.519,0a.616.616,0,0,0-.437.181L.091,3.168A.3.3,0,0,0,0,3.38V3.39A.309.309,0,0,0,.31,3.7H15.44a.617.617,0,0,0,.437-.181L18.867.528A.309.309,0,0,0,18.649,0Z" fill="#fff"/>
    </clipPath>
    <clipPath id="clip-path-3">
      <path id="Path_7256" data-name="Path 7256" d="M.31,10.793A.309.309,0,0,0,0,11.1v.009a.3.3,0,0,0,.091.212l2.99,2.987a.617.617,0,0,0,.437.181H18.649a.309.309,0,0,0,.218-.528l-2.99-2.988a.619.619,0,0,0-.437-.181Z" transform="translate(0 -10.793)" fill="#fff"/>
    </clipPath>
    <clipPath id="clip-path-4">
      <rect id="Rectangle_988" data-name="Rectangle 988" width="110.346" height="15" fill="#fff"/>
    </clipPath>
  </defs>
  <g id="Group_3213" data-name="Group 3213" transform="translate(0 11.304)">
    <g id="Group_3212" data-name="Group 3212" clip-path="url(#clip-path)">
      <rect id="Rectangle_985" data-name="Rectangle 985" width="12.099" height="18.609" transform="matrix(0.463, -0.886, 0.886, 0.463, -1.516, 2.905)" fill="#fff"/>
    </g>
  </g>
  <g id="Group_3215" data-name="Group 3215" transform="translate(0 0)">
    <g id="Group_3214" data-name="Group 3214" clip-path="url(#clip-path-2)">
      <rect id="Rectangle_986" data-name="Rectangle 986" width="12.099" height="18.609" transform="translate(-1.517 2.905) rotate(-62.432)" fill="#fff"/>
    </g>
  </g>
  <g id="Group_3217" data-name="Group 3217" transform="translate(0 5.616)">
    <g id="Group_3216" data-name="Group 3216" clip-path="url(#clip-path-3)">
      <rect id="Rectangle_987" data-name="Rectangle 987" width="12.099" height="18.609" transform="translate(-1.517 2.905) rotate(-62.432)" fill="#fff"/>
    </g>
  </g>
  <g id="Group_3219" data-name="Group 3219" transform="translate(0 0)">
    <g id="Group_3218" data-name="Group 3218" transform="translate(0 0)" clip-path="url(#clip-path-4)">
      <path id="Path_7257" data-name="Path 7257" d="M50.406,10.214h4.7a1.212,1.212,0,0,1,0,2.424h-5.67a.37.37,0,0,0-.241.09l-1.712,1.485a.377.377,0,0,0,.242.662h7.1a.005.005,0,0,0,.005-.005.005.005,0,0,1,.006-.005c.089.007.18.01.271.01a3.452,3.452,0,0,0,.282-6.888.006.006,0,0,1-.005-.006.006.006,0,0,0-.006-.006H50.311a1.212,1.212,0,0,1,0-2.424h5.662a.369.369,0,0,0,.252-.1l1.59-1.485a.377.377,0,0,0-.252-.653h-7.25a3.45,3.45,0,0,0,0,6.9h.093" transform="translate(-22.576 -1.596)" fill="#fff"/>
      <path id="Path_7258" data-name="Path 7258" d="M106.1,3.315a.375.375,0,0,0-.372.377V14.5a.374.374,0,0,0,.372.376h8.608a.37.37,0,0,0,.271-.119l1.077-1.162a.377.377,0,0,0-.271-.634h-7.516a.375.375,0,0,1-.372-.377V3.692a.374.374,0,0,0-.372-.377Z" transform="translate(-50.889 -1.596)" fill="#fff"/>
      <path id="Path_7259" data-name="Path 7259" d="M77.974,3.314h0v0a2.135,2.135,0,0,0-2.031,2.048h0v7.271h0c0,.031,0,.062,0,.092a2.137,2.137,0,0,0,2.033,2.143h7.815a2.137,2.137,0,0,0,2.033-2.143c0-.031,0-.062,0-.092h0V5.366h0a2.135,2.135,0,0,0-2.031-2.048v0H77.974ZM79.43,5.365h0a1.339,1.339,0,0,0-1.269,1.289h0V11.23h0c0,.019,0,.038,0,.058a1.34,1.34,0,0,0,1.27,1.348h4.9A1.34,1.34,0,0,0,85.6,11.289c0-.02,0-.039,0-.058h0V6.656h0a1.339,1.339,0,0,0-1.27-1.289h-4.9Z" transform="translate(-36.552 -1.595)" fill="#fff" fill-rule="evenodd"/>
      <path id="Path_7260" data-name="Path 7260" d="M140.944,14.5a.373.373,0,0,0,.369.377h1.46a.373.373,0,0,0,.369-.377V5.554h0c0-.031,0-.061,0-.092a2.128,2.128,0,0,0-2.014-2.143h-7.5l-.09,0a2.126,2.126,0,0,0-2.107,2.144c0,.031,0,.062,0,.092h0V14.5a.373.373,0,0,0,.369.377h1.46a.373.373,0,0,0,.369-.377V10.777A.373.373,0,0,1,134,10.4h6.579a.373.373,0,0,1,.369.377Zm-7.317-6.154V6.485a1.294,1.294,0,0,1,1.282-1.3h4.753a1.294,1.294,0,0,1,1.282,1.3V8.346a.373.373,0,0,1-.369.377H134a.373.373,0,0,1-.369-.377" transform="translate(-63.26 -1.596)" fill="#fff" fill-rule="evenodd"/>
      <path id="Path_7261" data-name="Path 7261" d="M199.917,14.876a.374.374,0,0,1-.372-.377V10.777a.375.375,0,0,0-.373-.377h-6.652a.375.375,0,0,0-.372.377V14.5a.374.374,0,0,1-.372.377H190.3a.374.374,0,0,1-.372-.377V5.553h0c0-.031,0-.061,0-.092a2.136,2.136,0,0,1,2.127-2.145l.091,0h7.584a2.137,2.137,0,0,1,2.033,2.143c0,.031,0,.062,0,.092h0V14.5a.374.374,0,0,1-.372.377Zm-7.77-8.392V8.346a.374.374,0,0,0,.372.376h6.652a.374.374,0,0,0,.373-.376V6.484a1.3,1.3,0,0,0-1.295-1.305h-4.808a1.3,1.3,0,0,0-1.295,1.305" transform="translate(-91.418 -1.595)" fill="#fff" fill-rule="evenodd"/>
      <path id="Path_7262" data-name="Path 7262" d="M162.715,3.315a.366.366,0,0,1,.281.132l6.547,7.853a.368.368,0,0,0,.65-.244V3.692a.373.373,0,0,1,.369-.377h1.46a.373.373,0,0,1,.369.377V14.5a.372.372,0,0,1-.369.376h-1.815a.014.014,0,0,1-.013-.014.014.014,0,0,0,0-.009l-6.657-7.8a.368.368,0,0,0-.647.247v7.2a.372.372,0,0,1-.369.376h-1.469a.372.372,0,0,1-.369-.376V3.692a.373.373,0,0,1,.369-.377Z" transform="translate(-77.339 -1.596)" fill="#fff"/>
    </g>
  </g>
</svg>
