<svg xmlns="http://www.w3.org/2000/svg" xmlns:xlink="http://www.w3.org/1999/xlink" width="56" height="14" viewBox="0 0 56 14">
  <defs>
    <clipPath id="clip-path">
      <rect id="Rectangle_984" data-name="Rectangle 984" width="56" height="14" fill="#fff"/>
    </clipPath>
  </defs>
  <g id="Group_3211" data-name="Group 3211" transform="translate(0.376 0.216)">
    <g id="Group_3210" data-name="Group 3210" transform="translate(-0.376 -0.216)" clip-path="url(#clip-path)">
      <path id="Path_7252" data-name="Path 7252" d="M25.662,7.409H18.217s-.556-.049-.556.322a2.35,2.35,0,0,0,2.428,1.9A3.392,3.392,0,0,0,22.24,8.7h3.744a.693.693,0,0,1,.34.084,6.4,6.4,0,0,1-6.239,4.424,6.483,6.483,0,0,1-6.442-5.435C15.043,5,16.614,1.779,17.365.238A13.586,13.586,0,0,1,20.085,0c4.434,0,6.548,3.117,6.548,6.764,0,0-.062.645-.971.645M20.191,3.378c-1.978,0-2.592,1.25-2.592,1.537s.314.309.314.309h4.7a.309.309,0,0,0,.313-.309c0-.3-.759-1.537-2.737-1.537M9.81,12.884a3.381,3.381,0,0,1-1.594.322A3.471,3.471,0,0,1,6.6,12.884C6,12.5.127.645.127.645S-.314,0,.449,0H2.065A3.767,3.767,0,0,1,5.625,1.934c.552,1.02,2.587,4.83,2.587,4.83s1.824-3.811,2.367-4.83A3.708,3.708,0,0,1,14.084,0h1.775c.751,0,.318.645.318.645S10.4,12.5,9.81,12.884" transform="translate(0.625 0.377)" fill="#fff" fill-rule="evenodd"/>
      <path id="Path_7253" data-name="Path 7253" d="M75,0a13.916,13.916,0,0,0-2.76.238c-.759,1.545-2.353,4.773-3.784,7.555A6.57,6.57,0,0,0,75,13.246a6.488,6.488,0,0,0,6.336-4.437.64.64,0,0,0-.344-.084h-3.8A3.5,3.5,0,0,1,75,9.661a2.381,2.381,0,0,1-2.468-1.9c.009-.38.574-.331.574-.331h7.564c.927,0,.989-.649.989-.649C81.655,3.131,79.509,0,75,0M77.58,5.241H72.8s-.322-.022-.322-.309.627-1.545,2.636-1.545,2.782,1.236,2.782,1.545a.306.306,0,0,1-.314.309M70.78.031H69.186a3.706,3.706,0,0,0-3.5,1.93c-.539,1.016-2.543,4.813-2.543,4.813s-1.762-3.8-2.309-4.813A3.76,3.76,0,0,0,57.277.031h-1.89c-.234,0-.358.062-.411.146a8.221,8.221,0,0,1,3.214,6.711,53.323,53.323,0,0,0,3.32,6,3.537,3.537,0,0,0,1.612.327,3.3,3.3,0,0,0,1.594-.327C65.309,12.513,71.076.68,71.076.68s.45-.649-.3-.649M81.288.38h.623V2.2h.4V.38h.627V.053H81.288ZM85.324.053h-.517l-.3.861c-.084.252-.159.517-.216.751h-.009c-.053-.238-.124-.495-.2-.746L83.8.053h-.525l-.146,2.155H83.5l.049-.865c.018-.3.031-.636.04-.918h0c.057.269.137.561.221.839l.291.918h.309l.318-.932c.1-.269.19-.561.261-.826H85c0,.291.013.627.026.9l.044.879h.384Z" transform="translate(-30.077 0.377)" fill="#fff"/>
    </g>
  </g>
</svg>
