<svg xmlns="http://www.w3.org/2000/svg" xmlns:xlink="http://www.w3.org/1999/xlink" width="68" height="16" viewBox="0 0 68 16">
  <defs>
    <clipPath id="clip-path">
      <rect id="Rectangle_984" data-name="Rectangle 984" width="68" height="16" transform="translate(0.311 0.282)" fill="#fff"/>
    </clipPath>
  </defs>
  <g id="Group_3211" data-name="Group 3211" transform="translate(-0.244 -0.282)">
    <g id="Group_3210" data-name="Group 3210" transform="translate(-0.067)" clip-path="url(#clip-path)">
      <path id="Path_7252" data-name="Path 7252" d="M32.089,9.265h-9.31s-.7-.061-.7.4a2.938,2.938,0,0,0,3.037,2.38,4.241,4.241,0,0,0,2.689-1.171h4.682a.866.866,0,0,1,.426.1,8.009,8.009,0,0,1-7.8,5.532,8.107,8.107,0,0,1-8.055-6.8C18.81,6.256,20.775,2.225,21.714.3a16.989,16.989,0,0,1,3.4-.3C30.659,0,33.3,3.9,33.3,8.459c0,0-.077.806-1.214.806M25.248,4.224c-2.474,0-3.242,1.563-3.242,1.921s.393.386.393.386h5.88a.387.387,0,0,0,.392-.386c-.006-.381-.949-1.921-3.423-1.921M12.267,16.111a4.228,4.228,0,0,1-1.993.4,4.34,4.34,0,0,1-2.021-.4C7.5,15.636.159.806.159.806S-.393,0,.562,0H2.582A4.711,4.711,0,0,1,7.033,2.418c.69,1.275,3.235,6.04,3.235,6.04s2.28-4.765,2.96-6.04A4.637,4.637,0,0,1,17.612,0h2.219c.939,0,.4.806.4.806s-7.222,14.83-7.962,15.305" transform="translate(0.08 0)" fill="#fff" fill-rule="evenodd"/>
      <path id="Path_7253" data-name="Path 7253" d="M80.011,0A17.4,17.4,0,0,0,76.56.3c-.95,1.932-2.943,5.969-4.732,9.447a8.216,8.216,0,0,0,8.183,6.819,8.113,8.113,0,0,0,7.923-5.549.8.8,0,0,0-.431-.1H82.749a4.37,4.37,0,0,1-2.739,1.171A2.977,2.977,0,0,1,76.924,9.7c.011-.475.718-.414.718-.414H87.1c1.159,0,1.237-.812,1.237-.812C88.337,3.915,85.653,0,80.011,0m3.23,6.554h-5.98s-.4-.028-.4-.386.784-1.932,3.3-1.932,3.478,1.546,3.478,1.932a.382.382,0,0,1-.392.386M74.738.039H72.745a4.634,4.634,0,0,0-4.378,2.413c-.674,1.27-3.18,6.018-3.18,6.018s-2.2-4.748-2.888-6.018A4.7,4.7,0,0,0,57.854.039H55.49c-.293,0-.447.077-.513.182A10.28,10.28,0,0,1,59,8.613a66.682,66.682,0,0,0,4.152,7.5,4.423,4.423,0,0,0,2.015.409,4.125,4.125,0,0,0,1.993-.409C67.9,15.647,75.108.85,75.108.85s.563-.812-.37-.812M87.879.475h.779v2.28h.5V.475h.784V.066H87.879ZM92.925.066h-.646L91.9,1.143c-.1.315-.2.646-.271.939h-.011c-.066-.3-.155-.618-.248-.933L91.015.066h-.657l-.182,2.694h.464L90.7,1.678c.022-.37.039-.8.05-1.148h.006c.072.337.171.7.276,1.049L91.4,2.728h.387l.4-1.165c.121-.337.237-.7.326-1.032h.011c-.006.364.017.784.033,1.126l.055,1.1h.48Z" transform="translate(-24.543)" fill="#fff"/>
    </g>
  </g>
</svg>
